<svg xmlns="http://www.w3.org/2000/svg" viewBox="0 0 100 100" fill="none" stroke="black" stroke-width="2" stroke-linecap="round" stroke-linejoin="round">
  <rect x="10" y="75" width="80" height="12" rx="4" />
  
  <rect x="18" y="78" width="12" height="4" rx="2" />

  <path d="M 70 75 L 70 35 Q 70 25 60 25 L 30 25 Q 20 25 20 35 L 20 60 Q 20 65 25 65 L 55 65 Q 60 65 62 60 L 65 50" />
  
  <rect x="74" y="32" width="6" height="25" rx="2" />
  <line x1="74" y1="38" x2="70" y2="38" stroke-width="2"/>
  <line x1="74" y1="50" x2="70" y2="50" stroke-width="2"/>

  <circle cx="65" cy="45" r="5"/>

  <path d="M 28 30 L 28 49" />
  <circle cx="28" cy="52" r="2.5" />

  <line x1="24" y1="66" x2="24" y2="71" stroke-width="2.5"/>
  <path d="M 20 72 L 28 72" stroke-width="2"/>
  
  <rect x="52" y="12" width="10" height="13" rx="1" stroke-width="2"/>
  <line x1="57" y1="12" x2="57" y2="8" stroke-width="2"/>
  <path d="M 52 16 L 62 16 M 52 20 L 62 20" stroke-width="1.5"/>

  <line x1="52" y1="18" x2="28" y2="25" stroke-width="1.5" />
</svg>